<svg version="1.1" id="Layer_1" xmlns="http://www.w3.org/2000/svg" xmlns:xlink="http://www.w3.org/1999/xlink" x="0px" y="0px"
	 width="100%" viewBox="0 0 478 478" enable-background="new 0 0 478 478" xml:space="preserve">
<path fill="#000000" opacity="1.000000" stroke="none" 
	d="
M240.043915,364.639618 
	C240.093826,365.104828 240.143738,365.570068 240.064087,366.681213 
	C240.105164,367.117157 240.146255,367.553101 240.063141,368.493347 
	C240.099030,368.662689 240.134918,368.832062 240.048477,369.930725 
	C240.093735,375.946472 240.138977,381.962250 240.051788,388.664185 
	C240.087982,389.127014 240.124191,389.589844 240.453735,390.870453 
	C287.462891,390.910797 334.472015,390.955994 381.481171,390.950012 
	C382.264679,390.949890 383.048157,390.327515 383.965759,389.334381 
	C383.917603,388.889191 383.869446,388.444031 383.956818,387.074310 
	C384.299072,379.654358 384.880798,372.235321 384.909943,364.814148 
	C384.934540,358.559174 384.058624,352.302856 384.029877,346.045074 
	C383.918304,321.771332 383.990601,297.496735 383.979279,273.222473 
	C383.978180,270.844360 383.873108,268.466278 383.595764,265.237152 
	C375.192566,265.237152 366.789398,265.237152 357.930786,265.237152 
	C357.930786,298.033966 357.930786,330.539154 357.871887,363.032104 
	C357.871887,363.032104 357.875366,363.092163 356.964661,363.048828 
	C319.168823,363.033264 281.372955,363.009430 243.577148,363.041809 
	C242.434357,363.042786 241.292053,363.630432 240.043915,364.639618 
M240.452271,116.864388 
	C242.276169,116.908340 244.100037,116.988930 245.923981,116.990845 
	C283.287964,117.030090 320.651978,117.060356 358.006256,117.500290 
	C358.006256,117.500290 358.139587,117.885895 358.026947,118.841591 
	C358.026947,150.804489 358.026947,182.767380 358.026947,215.442032 
	C367.186371,214.980637 375.674957,214.553024 384.762756,213.742661 
	C384.828186,211.733902 384.991974,209.722717 384.942932,207.716766 
	C384.648224,195.667236 384.013885,183.618195 384.042023,171.570297 
	C384.090790,150.710007 384.539978,129.850647 384.958954,108.138237 
	C384.584106,102.072792 384.209229,96.007347 383.526306,89.132797 
	C336.606628,89.088989 289.686951,89.038826 242.767288,89.054070 
	C241.957550,89.054329 241.148071,89.843842 240.104065,91.141991 
	C240.131210,98.743256 240.158356,106.344528 240.057373,114.639977 
	C240.094589,115.107689 240.131805,115.575401 240.452271,116.864388 
M343.947510,253.221725 
	C343.595551,242.821457 344.358521,232.236481 342.672058,222.057312 
	C338.461517,196.643158 325.702972,175.786209 305.859772,159.345856 
	C291.948090,147.819824 276.204773,140.751541 258.191711,137.700287 
	C235.907730,133.925598 214.769638,136.193787 194.483658,145.954941 
	C180.229279,152.813828 167.589188,162.255905 158.214966,174.861206 
	C147.197464,189.676208 138.572739,206.047562 137.151489,225.043991 
	C136.421982,234.794495 135.451569,244.724335 136.514755,254.360764 
	C137.792053,265.938049 141.323181,277.102386 146.933151,287.668304 
	C152.111755,297.421783 158.210861,306.378510 165.876602,314.127991 
	C177.408066,325.785400 191.336029,333.877319 206.805893,339.274750 
	C222.469406,344.739807 238.749008,345.956512 254.909302,343.614105 
	C264.929688,342.161713 274.756592,338.415985 284.278137,334.695831 
	C300.163879,328.489105 312.467926,316.959595 322.808105,304.006134 
	C334.315613,289.590302 341.444214,272.688049 343.947510,253.221725 
z"/>
<path fill="#052458" opacity="1.000000" stroke="none" 
	d="
M343.922455,253.673340 
	C341.444214,272.688049 334.315613,289.590302 322.808105,304.006134 
	C312.467926,316.959595 300.163879,328.489105 284.278137,334.695831 
	C274.756592,338.415985 264.929688,342.161713 254.909302,343.614105 
	C238.749008,345.956512 222.469406,344.739807 206.805893,339.274750 
	C191.336029,333.877319 177.408066,325.785400 165.876602,314.127991 
	C158.210861,306.378510 152.111755,297.421783 146.933151,287.668304 
	C141.323181,277.102386 137.792053,265.938049 136.514755,254.360764 
	C135.451569,244.724335 136.421982,234.794495 137.151489,225.043991 
	C138.572739,206.047562 147.197464,189.676208 158.214966,174.861206 
	C167.589188,162.255905 180.229279,152.813828 194.483658,145.954941 
	C214.769638,136.193787 235.907730,133.925598 258.191711,137.700287 
	C276.204773,140.751541 291.948090,147.819824 305.859772,159.345856 
	C325.702972,175.786209 338.461517,196.643158 342.672058,222.057312 
	C344.358521,232.236481 343.595551,242.821457 343.922455,253.673340 
M263.423370,198.973633 
	C252.197037,192.486603 240.074203,191.092438 227.881027,194.574509 
	C215.352280,198.152390 205.422623,205.441223 198.926270,217.462082 
	C191.197052,231.764236 190.916809,246.286377 197.403564,260.418915 
	C200.538986,267.249969 206.400269,273.327423 212.260574,278.289734 
	C220.388367,285.172058 230.887573,288.645477 241.296066,287.624603 
	C255.256714,286.255341 267.867371,281.067505 277.320923,269.271698 
	C284.355133,260.494659 287.988129,250.496811 287.538696,240.146896 
	C286.796753,223.060013 278.972595,208.875916 263.423370,198.973633 
z"/>
<path fill="#5381B1" opacity="1.000000" stroke="none" 
	d="
M383.816284,266.088196 
	C383.873108,268.466278 383.978180,270.844360 383.979279,273.222473 
	C383.990601,297.496735 383.918304,321.771332 384.029877,346.045074 
	C384.058624,352.302856 384.934540,358.559174 384.909943,364.814148 
	C384.880798,372.235321 384.299072,379.654358 383.494568,387.634949 
	C380.565063,388.461365 378.098083,388.956207 375.630585,388.958923 
	C332.927032,389.006042 290.223389,389.009308 247.519897,388.949127 
	C245.074219,388.945679 242.629440,388.316132 240.184235,387.977997 
	C240.138977,381.962250 240.093735,375.946472 240.167725,369.345551 
	C240.355377,368.490387 240.322174,368.233276 240.187332,367.989044 
	C240.146255,367.553101 240.105164,367.117157 240.521790,366.253662 
	C243.944565,365.555359 246.909225,365.054840 249.874802,365.049286 
	C281.782379,364.989258 313.690094,365.025330 345.597656,364.968231 
	C348.054688,364.963837 350.510773,364.453339 353.335449,364.119690 
	C355.094208,363.738281 356.484772,363.415222 357.875366,363.092163 
	C357.875366,363.092163 357.871887,363.032104 358.082275,362.662659 
	C358.533295,360.001709 358.979370,357.710602 358.983337,355.418671 
	C359.030670,328.027008 359.003174,300.635223 359.017487,273.243469 
	C359.021118,266.285950 359.302734,266.019653 366.385956,266.008392 
	C372.196014,265.999176 378.006165,266.058990 383.816284,266.088196 
z"/>
<path fill="#5481B1" opacity="1.000000" stroke="none" 
	d="
M240.185501,113.945793 
	C240.158356,106.344528 240.131210,98.743256 240.469696,90.598694 
	C241.190643,90.089241 241.545975,90.123093 242.290344,90.307785 
	C245.160568,90.641472 247.641617,90.981720 250.122910,90.983711 
	C291.283539,91.016693 332.444183,91.001930 373.604828,91.011665 
	C381.984619,91.013649 382.415344,91.585701 383.011566,100.062370 
	C383.222809,103.066109 384.195892,106.016273 384.821167,108.990898 
	C384.539978,129.850647 384.090790,150.710007 384.042023,171.570297 
	C384.013885,183.618195 384.648224,195.667236 384.942932,207.716766 
	C384.991974,209.722717 384.828186,211.733902 383.987671,213.900223 
	C377.557159,214.039978 371.901611,214.037094 366.246307,214.000565 
	C359.292175,213.955658 359.018738,213.694183 359.015686,206.588303 
	C359.003998,179.473953 359.036041,152.359558 358.977112,125.245338 
	C358.971771,122.791595 358.431458,120.339012 358.139587,117.885895 
	C358.139587,117.885895 358.006256,117.500290 357.887817,117.053238 
	C357.519714,116.348953 357.270081,116.091713 356.771271,115.599915 
	C352.951630,115.241631 349.381226,115.013657 345.810638,115.010490 
	C313.557434,114.981941 281.304169,115.019920 249.051147,114.946503 
	C246.095184,114.939781 243.140686,114.294540 240.185501,113.945793 
z"/>
<path fill="#5F81A1" opacity="1.000000" stroke="none" 
	d="
M384.890076,108.564568 
	C384.195892,106.016273 383.222809,103.066109 383.011566,100.062370 
	C382.415344,91.585701 381.984619,91.013649 373.604828,91.011665 
	C332.444183,91.001930 291.283539,91.016693 250.122910,90.983711 
	C247.641617,90.981720 245.160568,90.641472 242.767410,90.250046 
	C289.848389,90.008278 336.841370,89.975090 383.834351,89.941902 
	C384.209229,96.007347 384.584106,102.072792 384.890076,108.564568 
z"/>
<path fill="#5F7D9A" opacity="1.000000" stroke="none" 
	d="
M240.118011,388.321106 
	C242.629440,388.316132 245.074219,388.945679 247.519897,388.949127 
	C290.223389,389.009308 332.927032,389.006042 375.630585,388.958923 
	C378.098083,388.956207 380.565063,388.461365 383.426788,388.097198 
	C383.869446,388.444031 383.917603,388.889191 383.442383,389.673401 
	C335.332825,390.025818 287.746582,390.039246 240.160370,390.052673 
	C240.124191,389.589844 240.087982,389.127014 240.118011,388.321106 
z"/>
<path fill="#D9E6FB" opacity="1.000000" stroke="none" 
	d="
M240.307053,390.461548 
	C287.746582,390.039246 335.332825,390.025818 383.375336,390.003937 
	C383.048157,390.327515 382.264679,390.949890 381.481171,390.950012 
	C334.472015,390.955994 287.462891,390.910797 240.307053,390.461548 
z"/>
<path fill="#D3E9FE" opacity="1.000000" stroke="none" 
	d="
M383.680328,89.537354 
	C336.841370,89.975090 289.848389,90.008278 242.378357,90.099213 
	C241.545975,90.123093 241.190643,90.089241 240.586899,90.160233 
	C241.148071,89.843842 241.957550,89.054329 242.767288,89.054070 
	C289.686951,89.038826 336.606628,89.088989 383.680328,89.537354 
z"/>
<path fill="#728CA8" opacity="1.000000" stroke="none" 
	d="
M383.706024,265.662659 
	C378.006165,266.058990 372.196014,265.999176 366.385956,266.008392 
	C359.302734,266.019653 359.021118,266.285950 359.017487,273.243469 
	C359.003174,300.635223 359.030670,328.027008 358.983337,355.418671 
	C358.979370,357.710602 358.533295,360.001709 358.111694,362.668762 
	C357.930786,330.539154 357.930786,298.033966 357.930786,265.237152 
	C366.789398,265.237152 375.192566,265.237152 383.706024,265.662659 
z"/>
<path fill="#728CA8" opacity="1.000000" stroke="none" 
	d="
M358.083252,118.363739 
	C358.431458,120.339012 358.971771,122.791595 358.977112,125.245338 
	C359.036041,152.359558 359.003998,179.473953 359.015686,206.588303 
	C359.018738,213.694183 359.292175,213.955658 366.246307,214.000565 
	C371.901611,214.037094 377.557159,214.039978 383.688049,214.091599 
	C375.674957,214.553024 367.186371,214.980637 358.026947,215.442032 
	C358.026947,182.767380 358.026947,150.804489 358.083252,118.363739 
z"/>
<path fill="#5C7E9D" opacity="1.000000" stroke="none" 
	d="
M240.121429,114.292885 
	C243.140686,114.294540 246.095184,114.939781 249.051147,114.946503 
	C281.304169,115.019920 313.557434,114.981941 345.810638,115.010490 
	C349.381226,115.013657 352.951630,115.241631 356.302338,115.649948 
	C317.444702,115.970741 278.806854,116.006927 240.169037,116.043114 
	C240.131805,115.575401 240.094589,115.107689 240.121429,114.292885 
z"/>
<path fill="#C4DAEE" opacity="1.000000" stroke="none" 
	d="
M240.310638,116.453751 
	C278.806854,116.006927 317.444702,115.970741 356.551483,115.884514 
	C357.270081,116.091713 357.519714,116.348953 357.892670,116.849304 
	C320.651978,117.060356 283.287964,117.030090 245.923981,116.990845 
	C244.100037,116.988930 242.276169,116.908340 240.310638,116.453751 
z"/>
<path fill="#C0D8EE" opacity="1.000000" stroke="none" 
	d="
M357.420013,363.070496 
	C356.484772,363.415222 355.094208,363.738281 352.870422,364.067261 
	C314.741302,364.030273 277.445404,363.987396 240.149521,363.944550 
	C241.292053,363.630432 242.434357,363.042786 243.577148,363.041809 
	C281.372955,363.009430 319.168823,363.033264 357.420013,363.070496 
z"/>
<path fill="#597C9E" opacity="1.000000" stroke="none" 
	d="
M240.096710,364.292084 
	C277.445404,363.987396 314.741302,364.030273 352.502258,364.125610 
	C350.510773,364.453339 348.054688,364.963837 345.597656,364.968231 
	C313.690094,365.025330 281.782379,364.989258 249.874802,365.049286 
	C246.909225,365.054840 243.944565,365.555359 240.586563,365.930664 
	C240.143738,365.570068 240.093826,365.104828 240.096710,364.292084 
z"/>
<path fill="#597C9E" opacity="1.000000" stroke="none" 
	d="
M240.125244,368.241211 
	C240.322174,368.233276 240.355377,368.490387 240.228882,368.880920 
	C240.134918,368.832062 240.099030,368.662689 240.125244,368.241211 
z"/>
<path fill="#000000" opacity="1.000000" stroke="none" 
	d="
M263.723267,199.183914 
	C278.972595,208.875916 286.796753,223.060013 287.538696,240.146896 
	C287.988129,250.496811 284.355133,260.494659 277.320923,269.271698 
	C267.867371,281.067505 255.256714,286.255341 241.296066,287.624603 
	C230.887573,288.645477 220.388367,285.172058 212.260574,278.289734 
	C206.400269,273.327423 200.538986,267.249969 197.403564,260.418915 
	C190.916809,246.286377 191.197052,231.764236 198.926270,217.462082 
	C205.422623,205.441223 215.352280,198.152390 227.881027,194.574509 
	C240.074203,191.092438 252.197037,192.486603 263.723267,199.183914 
z"/>
</svg>